<?xml version="1.0" standalone="no"?>
<!DOCTYPE svg PUBLIC "-//W3C//DTD SVG 20010904//EN"
 "http://www.w3.org/TR/2001/REC-SVG-20010904/DTD/svg10.dtd">
<svg version="1.0" xmlns="http://www.w3.org/2000/svg"
 width="225.000000pt" height="225.000000pt" viewBox="0 0 225.000000 225.000000"
 preserveAspectRatio="xMidYMid meet">
<metadata>
Created by potrace 1.14, written by Peter Selinger 2001-2017
</metadata>
<g transform="translate(0.000000,225.000000) scale(0.100000,-0.100000)"
fill="#000000" stroke="none">
<path d="M915 2059 c-122 -15 -233 -48 -270 -80 -37 -33 -86 -121 -110 -199
-11 -35 -19 -107 -22 -198 -6 -142 -6 -143 -34 -162 -30 -22 -54 -80 -46 -111
4 -16 0 -19 -24 -19 l-29 0 0 -100 0 -100 30 0 31 0 -2 -82 c-2 -89 19 -167
81 -304 35 -77 111 -188 145 -210 23 -15 36 -55 50 -152 6 -50 34 -96 100
-169 l47 -53 296 0 296 0 49 52 c67 73 94 123 102 192 10 83 18 101 78 166 63
67 124 181 167 307 23 72 30 108 30 172 l0 81 30 0 30 0 0 100 0 100 -30 0
c-29 0 -30 2 -30 44 0 38 -5 48 -39 79 l-38 35 4 69 c11 150 -31 326 -101 421
-45 62 -92 86 -211 108 -108 19 -461 27 -580 13z m154 -250 c6 -90 11 -185 11
-211 0 -45 -2 -48 -25 -48 -18 0 -25 5 -25 20 0 11 -6 23 -13 26 -21 7 -106
-25 -155 -58 -42 -29 -43 -31 -26 -49 22 -25 135 -79 163 -79 14 0 25 9 31 25
5 14 17 25 26 25 14 0 16 -10 9 -87 -11 -143 -2 -133 -110 -133 -107 0 -112 4
-150 95 l-23 57 -16 -53 c-26 -90 -25 -89 -110 -47 l-74 37 -8 68 c-11 88 -11
328 -1 374 4 20 25 64 47 98 35 55 43 61 73 61 19 0 55 -11 80 -24 l47 -23 0
28 c0 21 19 55 33 60 1 0 45 8 97 18 89 16 95 16 102 0 3 -9 11 -90 17 -180z
m348 170 c57 -11 83 -36 83 -77 l0 -23 29 22 c17 13 50 24 79 27 45 4 51 2 69
-24 72 -102 88 -198 73 -414 -6 -74 -13 -142 -15 -150 -3 -8 -38 -30 -77 -48
-85 -38 -89 -36 -109 56 l-13 55 -17 -52 c-10 -28 -27 -65 -39 -81 -21 -30
-22 -30 -115 -30 -52 0 -96 4 -99 8 -3 5 -8 54 -12 110 -6 87 -5 102 8 102 8
0 20 -11 26 -25 6 -14 18 -25 27 -25 27 0 116 38 152 66 l36 27 -24 20 c-33
27 -108 63 -146 72 -29 6 -34 4 -43 -19 -6 -16 -17 -26 -30 -26 -19 0 -20 6
-20 89 0 88 17 335 25 357 4 12 24 9 152 -17z m-737 -794 c279 -62 701 -60
979 6 46 10 86 17 88 15 2 -2 1 -20 -2 -40 -7 -34 -11 -37 -71 -56 -167 -51
-277 -65 -514 -65 -240 0 -322 10 -489 58 -88 26 -101 36 -101 80 0 23 3 27
23 22 12 -3 51 -12 87 -20z m-55 -191 c55 -14 103 -31 107 -38 5 -6 18 -41 30
-78 12 -38 24 -68 27 -67 4 0 20 28 36 62 l30 62 75 -2 c41 -1 87 -6 103 -12
l27 -11 0 -345 0 -345 -65 0 -64 0 -50 62 c-34 42 -52 74 -57 102 -11 72 -32
107 -127 210 -149 162 -173 196 -191 275 -9 39 -16 91 -16 116 0 39 3 46 18
41 9 -3 62 -17 117 -32z m1201 -34 c-15 -147 -34 -182 -212 -374 -74 -79 -98
-112 -109 -150 -8 -27 -15 -58 -15 -69 0 -10 -23 -48 -51 -83 l-51 -64 -64 0
-64 0 0 345 0 345 26 10 c15 6 59 13 99 17 l73 6 35 -69 c23 -44 37 -64 41
-54 3 8 16 44 29 80 l24 65 114 32 c63 17 118 32 123 32 5 1 6 -30 2 -69z"/>
</g>
</svg>
